<?xml version="1.0" standalone="no"?>
<!DOCTYPE svg PUBLIC "-//W3C//DTD SVG 20010904//EN"
 "http://www.w3.org/TR/2001/REC-SVG-20010904/DTD/svg10.dtd">
<svg version="1.0" xmlns="http://www.w3.org/2000/svg"
 width="700.000000pt" height="700.000000pt" viewBox="0 0 700.000000 700.000000"
 preserveAspectRatio="xMidYMid meet">
<metadata>
Created by potrace 1.14, written by Peter Selinger 2001-2017
</metadata>
<g transform="translate(0.000000,700.000000) scale(0.100000,-0.100000)"
fill="#000000" stroke="none">
<path d="M3393 6904 c-85 -17 -113 -31 -403 -199 -140 -81 -271 -156 -290
-167 -19 -11 -183 -106 -365 -211 -181 -105 -442 -255 -580 -335 -137 -79
-295 -170 -350 -202 -55 -32 -230 -133 -390 -225 -338 -195 -336 -193 -397
-257 -59 -62 -96 -124 -124 -213 l-23 -70 2 -1535 c1 -844 5 -1544 9 -1555 40
-125 104 -226 183 -288 29 -23 129 -85 222 -139 255 -146 667 -384 833 -480
124 -72 741 -428 850 -491 47 -26 99 -56 115 -66 17 -10 48 -28 70 -41 22 -12
69 -39 105 -60 472 -274 507 -289 656 -284 102 3 190 32 319 107 300 173 359
207 364 207 2 0 12 6 20 14 9 7 41 27 71 43 30 17 98 55 150 85 52 31 114 66
136 79 108 62 401 232 414 240 86 51 173 99 181 99 5 0 9 5 9 10 0 6 4 10 9
10 7 0 505 285 861 493 19 11 53 30 76 43 22 12 59 34 82 48 23 14 44 26 47
26 9 0 109 77 125 97 83 100 118 166 138 258 8 35 11 506 12 1560 l0 1510 -24
75 c-27 86 -37 107 -88 175 -36 49 -97 107 -137 129 -11 6 -84 48 -162 94 -78
45 -145 82 -150 82 -5 0 -9 5 -9 10 0 6 -4 10 -10 10 -5 0 -55 27 -111 60 -55
33 -102 60 -104 60 -2 0 -36 19 -77 43 -40 24 -93 55 -118 69 -25 14 -85 49
-135 78 -49 29 -106 62 -125 72 -36 21 -214 124 -710 411 -157 90 -305 176
-330 190 -25 14 -151 87 -280 162 -145 83 -261 143 -301 156 -82 25 -184 30
-266 13z"/>
</g>
</svg>
